Coordinates
version=1
nRows=13
nColumns=38
inDegrees=no

Units are S.I. units (second, meters, Newtons, ...)
If the header above contains a line with 'inDegrees', this indicates whether rotational values are in degrees (yes) or radians (no).

endheader
time	pelvis_tilt	pelvis_list	pelvis_rotation	pelvis_tx	pelvis_ty	pelvis_tz	hip_flexion_r	hip_adduction_r	hip_rotation_r	knee_angle_r	ankle_angle_r	subtalar_angle_r	mtp_angle_r	hip_flexion_l	hip_adduction_l	hip_rotation_l	knee_angle_l	ankle_angle_l	subtalar_angle_l	mtp_angle_l	lumbar_extension	lumbar_bending	lumbar_rotation	arm_flex_r	arm_add_r	arm_rot_r	elbow_flex_r	pro_sup_r	wrist_flex_r	wrist_dev_r	arm_flex_l	arm_add_l	arm_rot_l	elbow_flex_l	pro_sup_l	wrist_flex_l	wrist_dev_l
1.62	2.62657	1.51456	-0.997817	0.584491	0.815935	0.924248	-0.24348	0.0174646	-0.272882	0.481507	-0.113827	0	0	0.239895	0.0140142	-0.0550722	0.202022	-0.284313	0	0	-0.143538	0.0338629	-0.0548755	0.117017	-0.26043	0.293482	0.922737	1.55492	0	0	-0.218287	-0.247102	0.0962376	0.850774	1.5708	0	0
1.63	2.63274	1.52264	-1.00713	0.58355	0.827191	0.924013	-0.233407	0.00692055	-0.26428	0.513958	-0.120174	0	0	0.236751	0.0205944	-0.0552232	0.197622	-0.305233	0	0	-0.133048	0.0264911	-0.0410766	0.0925008	-0.25244	0.260009	0.92016	1.5708	0	0	-0.209693	-0.250536	0.11491	0.838463	1.5708	0	0
1.64	2.64184	1.52968	-1.01874	0.582392	0.838549	0.923888	-0.223794	-0.00297927	-0.253082	0.546759	-0.128753	0	0	0.23248	0.0262913	-0.057643	0.195724	-0.318026	0	0	-0.122286	0.0199208	-0.0383258	0.0810765	-0.2501	0.258464	0.909132	1.5708	0	0	-0.210253	-0.25022	0.117705	0.830166	1.5708	0	0
1.65	2.61302	1.53722	-0.991241	0.581075	0.849954	0.923732	-0.21132	-0.0118949	-0.239033	0.582829	-0.138966	0	0	0.231008	0.0303486	-0.0599669	0.199105	-0.325016	0	0	-0.109714	0.0146998	-0.0370057	0.0689218	-0.247984	0.257157	0.89771	1.5708	0	0	-0.211045	-0.249614	0.120645	0.821338	1.5708	0	0
1.66	2.53121	1.5448	-0.910144	0.579666	0.861197	0.923703	-0.196497	-0.0199854	-0.217826	0.621199	-0.151027	0	0	0.23235	0.0329501	-0.0618694	0.208311	-0.329547	0	0	-0.0965203	0.0104082	-0.0365851	0.0570122	-0.246082	0.256513	0.885421	1.5708	0	0	-0.211371	-0.248925	0.124061	0.811668	1.5708	0	0
1.67	2.38136	1.55216	-0.760455	0.578227	0.872186	0.923963	-0.179662	-0.0282223	-0.187473	0.663217	-0.164779	0	0	0.234616	0.0353202	-0.0625404	0.219578	-0.334316	0	0	-0.0836225	0.00621834	-0.0371134	0.0460539	-0.243948	0.256534	0.871597	1.5708	0	0	-0.210322	-0.248195	0.128386	0.800371	1.5708	0	0
1.68	2.16458	1.5585	-0.542182	0.576622	0.88302	0.924629	-0.162358	-0.0366768	-0.158181	0.705616	-0.183914	0	0	0.234481	0.0388148	-0.0603318	0.228163	-0.338125	0	0	-0.0723901	0.00157643	-0.039832	0.0364002	-0.241203	0.256827	0.856073	1.5708	0	0	-0.208124	-0.247978	0.13423	0.787747	1.5708	0	0
1.69	1.89953	1.56352	-0.273478	0.574706	0.893745	0.925632	-0.144096	-0.0465126	-0.141002	0.750269	-0.211209	0	0	0.230552	0.0438327	-0.0550885	0.234069	-0.336635	0	0	-0.0637919	-0.00329057	-0.0452046	0.0278751	-0.239735	0.259503	0.840734	1.5708	0	0	-0.205118	-0.248238	0.141249	0.775107	1.5708	0	0
1.7	1.6163	1.56761	0.0144556	0.572691	0.904269	0.926843	-0.125048	-0.0577819	-0.131812	0.796986	-0.24379	0	0	0.223428	0.0492659	-0.0508714	0.23929	-0.331013	0	0	-0.0585192	-0.00826657	-0.0522146	0.0199051	-0.238848	0.263087	0.826972	1.5708	0	0	-0.201803	-0.249175	0.149044	0.764007	1.5708	0	0
1.71	-0.717441	1.56879	2.35338	0.570602	0.914601	0.928075	-0.104039	-0.0704265	-0.127268	0.844995	-0.282878	0	0	0.214931	0.0550031	-0.049282	0.244416	-0.325229	0	0	-0.0547167	-0.0132985	-0.0604504	0.0123881	-0.238813	0.268258	0.814789	1.5708	0	0	-0.19856	-0.250804	0.157924	0.7546	1.5708	0	0
1.72	-1.22509	1.56529	2.86603	0.568483	0.924759	0.92926	-0.0813607	-0.0837352	-0.124236	0.892241	-0.327796	0	0	0.205161	0.0612558	-0.0487293	0.248266	-0.319738	0	0	-0.0517067	-0.018359	-0.0690329	0.00565749	-0.240734	0.27662	0.804412	1.5708	0	0	-0.195418	-0.252802	0.16732	0.746962	1.5708	0	0
1.73	-1.39234	1.56111	3.03767	0.566432	0.934668	0.930412	-0.0578936	-0.0968445	-0.121555	0.938493	-0.37289	0	0	0.193675	0.0673989	-0.0498125	0.250766	-0.313774	0	0	-0.0502835	-0.0231048	-0.078276	0.000226829	-0.243566	0.287095	0.7958	1.5708	0	0	-0.192658	-0.255139	0.176268	0.741527	1.5708	0	0
1.74	-1.5742	1.55703	-3.06037	0.564496	0.944334	0.931531	-0.0345442	-0.109969	-0.119755	0.98567	-0.406324	0	0	0.179606	0.0730224	-0.0532319	0.251616	-0.308489	0	0	-0.0520401	-0.0266913	-0.0893122	-0.00434117	-0.247166	0.299269	0.789244	1.5708	0	0	-0.191007	-0.257313	0.182034	0.738916	1.5708	0	0
